HIERARCHY
ROOT Root
{
  OFFSET 0.0 0.0 0.0
  CHANNELS 6 Xposition Yposition Zposition Zrotation Yrotation Xrotation
  JOINT Hips
  {
    OFFSET 0.0 100.0 0.0
    CHANNELS 6 Xposition Yposition Zposition Zrotation Yrotation Xrotation
    JOINT Spine1
    {
      OFFSET 5.003913 -0.037094 -0.013727
      CHANNELS 3 Zrotation Yrotation Xrotation
      JOINT Spine2
      {
        OFFSET 7.125363 -1e-06 0.0
        CHANNELS 3 Zrotation Yrotation Xrotation
        JOINT Chest
        {
          OFFSET 7.594027 1e-06 0.0
          CHANNELS 3 Zrotation Yrotation Xrotation
          JOINT Neck1
          {
            OFFSET 26.313086 -0.460272 -0.181672
            CHANNELS 3 Zrotation Yrotation Xrotation
            JOINT Neck2
            {
              OFFSET 8.045911 0.0 0.0
              CHANNELS 3 Zrotation Yrotation Xrotation
              JOINT Head
              {
                OFFSET 6.432774 0.0 0.0
                CHANNELS 3 Zrotation Yrotation Xrotation
                JOINT HeadEnd
                {
                  OFFSET 16.169773 0.06451 0.00362
                  CHANNELS 3 Zrotation Yrotation Xrotation
                }
                JOINT Jaw
                {
                  OFFSET 0.108741 3.12938 0.002639
                  CHANNELS 3 Zrotation Yrotation Xrotation
                }
                JOINT LeftEye
                {
                  OFFSET 4.45173 8.166359 3.206392
                  CHANNELS 3 Zrotation Yrotation Xrotation
                }
                JOINT RightEye
                {
                  OFFSET 4.436895 8.135758 -3.222429
                  CHANNELS 3 Zrotation Yrotation Xrotation
                }
              }
            }
          }
          JOINT LeftShoulder
          {
            OFFSET 23.218927 5.195579 1.621656
            CHANNELS 3 Zrotation Yrotation Xrotation
            JOINT LeftArm
            {
              OFFSET 15.902118 2e-06 -2e-06
              CHANNELS 3 Zrotation Yrotation Xrotation
              JOINT LeftForeArm
              {
                OFFSET 28.739307 0.0 -1e-06
                CHANNELS 3 Zrotation Yrotation Xrotation
                JOINT LeftHand
                {
                  OFFSET 27.093981 -4e-06 0.0
                  CHANNELS 3 Zrotation Yrotation Xrotation
                  JOINT LeftHandThumb1
                  {
                    OFFSET 2.276781 3.380274 0.83384
                    CHANNELS 3 Zrotation Yrotation Xrotation
                    JOINT LeftHandThumb2
                    {
                      OFFSET 4.705309 -1e-06 -1e-06
                      CHANNELS 3 Zrotation Yrotation Xrotation
                      JOINT LeftHandThumb3
                      {
                        OFFSET 2.798515 0.0 3e-06
                        CHANNELS 3 Zrotation Yrotation Xrotation
                        JOINT LeftHandThumbEnd
                        {
                          OFFSET 3.180793 4e-06 -4e-06
                          CHANNELS 3 Zrotation Yrotation Xrotation
                        }
                      }
                    }
                  }
                  JOINT LeftHandIndex1
                  {
                    OFFSET 3.247786 2.352677 0.137192
                    CHANNELS 3 Zrotation Yrotation Xrotation
                    JOINT LeftHandIndex2
                    {
                      OFFSET 6.367095 1e-06 0.0
                      CHANNELS 3 Zrotation Yrotation Xrotation
                      JOINT LeftHandIndex3
                      {
                        OFFSET 3.662364 0.0 0.0
                        CHANNELS 3 Zrotation Yrotation Xrotation
                        JOINT LeftHandIndex4
                        {
                          OFFSET 2.329242 4e-06 -4e-06
                          CHANNELS 3 Zrotation Yrotation Xrotation
                          JOINT LeftHandIndexEnd
                          {
                            OFFSET 2.767823 1e-06 0.0
                            CHANNELS 3 Zrotation Yrotation Xrotation
                          }
                        }
                      }
                    }
                  }
                  JOINT LeftHandMiddle1
                  {
                    OFFSET 3.163612 0.945023 -0.406112
                    CHANNELS 3 Zrotation Yrotation Xrotation
                    JOINT LeftHandMiddle2
                    {
                      OFFSET 6.276789 3e-06 0.0
                      CHANNELS 3 Zrotation Yrotation Xrotation
                      JOINT LeftHandMiddle3
                      {
                        OFFSET 4.35652 -1e-06 4e-06
                        CHANNELS 3 Zrotation Yrotation Xrotation
                        JOINT LeftHandMiddle4
                        {
                          OFFSET 2.996877 0.0 8e-06
                          CHANNELS 3 Zrotation Yrotation Xrotation
                          JOINT LeftHandMiddleEnd
                          {
                            OFFSET 2.323256 3e-06 -4e-06
                            CHANNELS 3 Zrotation Yrotation Xrotation
                          }
                        }
                      }
                    }
                  }
                  JOINT LeftHandRing1
                  {
                    OFFSET 2.882606 -0.309162 0.107445
                    CHANNELS 3 Zrotation Yrotation Xrotation
                    JOINT LeftHandRing2
                    {
                      OFFSET 6.033198 0.0 4e-06
                      CHANNELS 3 Zrotation Yrotation Xrotation
                      JOINT LeftHandRing3
                      {
                        OFFSET 4.350578 3e-06 0.0
                        CHANNELS 3 Zrotation Yrotation Xrotation
                        JOINT LeftHandRing4
                        {
                          OFFSET 2.651321 2e-06 -7e-06
                          CHANNELS 3 Zrotation Yrotation Xrotation
                          JOINT LeftHandRingEnd
                          {
                            OFFSET 1.937663 1e-06 -4e-06
                            CHANNELS 3 Zrotation Yrotation Xrotation
                          }
                        }
                      }
                    }
                  }
                  JOINT LeftHandPinky1
                  {
                    OFFSET 2.865315 -1.525436 0.575687
                    CHANNELS 3 Zrotation Yrotation Xrotation
                    JOINT LeftHandPinky2
                    {
                      OFFSET 5.54936 1e-06 -8e-06
                      CHANNELS 3 Zrotation Yrotation Xrotation
                      JOINT LeftHandPinky3
                      {
                        OFFSET 3.070974 0.0 -4e-06
                        CHANNELS 3 Zrotation Yrotation Xrotation
                        JOINT LeftHandPinky4
                        {
                          OFFSET 1.549672 1e-06 0.0
                          CHANNELS 3 Zrotation Yrotation Xrotation
                          JOINT LeftHandPinkyEnd
                          {
                            OFFSET 1.952123 0.0 0.0
                            CHANNELS 3 Zrotation Yrotation Xrotation
                          }
                        }
                      }
                    }
                  }
                }
              }
            }
          }
          JOINT RightShoulder
          {
            OFFSET 23.161716 5.296122 -1.380114
            CHANNELS 3 Zrotation Yrotation Xrotation
            JOINT RightArm
            {
              OFFSET -16.027195 -2e-06 1.1e-05
              CHANNELS 3 Zrotation Yrotation Xrotation
              JOINT RightForeArm
              {
                OFFSET -28.736639 4e-06 2e-06
                CHANNELS 3 Zrotation Yrotation Xrotation
                JOINT RightHand
                {
                  OFFSET -27.133619 6e-06 0.0
                  CHANNELS 3 Zrotation Yrotation Xrotation
                  JOINT RightHandThumb1
                  {
                    OFFSET -2.274328 -3.351035 -0.83067
                    CHANNELS 3 Zrotation Yrotation Xrotation
                    JOINT RightHandThumb2
                    {
                      OFFSET -4.703594 -3e-06 2e-06
                      CHANNELS 3 Zrotation Yrotation Xrotation
                      JOINT RightHandThumb3
                      {
                        OFFSET -2.794935 -4e-06 -3e-06
                        CHANNELS 3 Zrotation Yrotation Xrotation
                        JOINT RightHandThumbEnd
                        {
                          OFFSET -3.183852 4e-06 1e-06
                          CHANNELS 3 Zrotation Yrotation Xrotation
                        }
                      }
                    }
                  }
                  JOINT RightHandIndex1
                  {
                    OFFSET -3.253496 -2.33755 -0.127667
                    CHANNELS 3 Zrotation Yrotation Xrotation
                    JOINT RightHandIndex2
                    {
                      OFFSET -6.344434 0.0 0.0
                      CHANNELS 3 Zrotation Yrotation Xrotation
                      JOINT RightHandIndex3
                      {
                        OFFSET -3.654871 0.0 -8e-06
                        CHANNELS 3 Zrotation Yrotation Xrotation
                        JOINT RightHandIndex4
                        {
                          OFFSET -2.327586 -1e-06 0.0
                          CHANNELS 3 Zrotation Yrotation Xrotation
                          JOINT RightHandIndexEnd
                          {
                            OFFSET -2.770001 3e-06 8e-06
                            CHANNELS 3 Zrotation Yrotation Xrotation
                          }
                        }
                      }
                    }
                  }
                  JOINT RightHandMiddle1
                  {
                    OFFSET -3.168223 -0.944764 0.411762
                    CHANNELS 3 Zrotation Yrotation Xrotation
                    JOINT RightHandMiddle2
                    {
                      OFFSET -6.266691 -1e-06 -4e-06
                      CHANNELS 3 Zrotation Yrotation Xrotation
                      JOINT RightHandMiddle3
                      {
                        OFFSET -4.348901 0.0 0.0
                        CHANNELS 3 Zrotation Yrotation Xrotation
                        JOINT RightHandMiddle4
                        {
                          OFFSET -3.00024 2e-06 -4e-06
                          CHANNELS 3 Zrotation Yrotation Xrotation
                          JOINT RightHandMiddleEnd
                          {
                            OFFSET -2.321477 -4e-06 -4e-06
                            CHANNELS 3 Zrotation Yrotation Xrotation
                          }
                        }
                      }
                    }
                  }
                  JOINT RightHandRing1
                  {
                    OFFSET -2.885654 0.293261 -0.119232
                    CHANNELS 3 Zrotation Yrotation Xrotation
                    JOINT RightHandRing2
                    {
                      OFFSET -6.032835 -1e-06 -4e-06
                      CHANNELS 3 Zrotation Yrotation Xrotation
                      JOINT RightHandRing3
                      {
                        OFFSET -4.33881 0.0 -4e-06
                        CHANNELS 3 Zrotation Yrotation Xrotation
                        JOINT RightHandRing4
                        {
                          OFFSET -2.654903 -4e-06 -4e-06
                          CHANNELS 3 Zrotation Yrotation Xrotation
                          JOINT RightHandRingEnd
                          {
                            OFFSET -1.935122 0.0 4e-06
                            CHANNELS 3 Zrotation Yrotation Xrotation
                          }
                        }
                      }
                    }
                  }
                  JOINT RightHandPinky1
                  {
                    OFFSET -2.866241 1.503904 -0.60527
                    CHANNELS 3 Zrotation Yrotation Xrotation
                    JOINT RightHandPinky2
                    {
                      OFFSET -5.553177 -2e-06 0.0
                      CHANNELS 3 Zrotation Yrotation Xrotation
                      JOINT RightHandPinky3
                      {
                        OFFSET -3.062664 -1e-06 -4e-06
                        CHANNELS 3 Zrotation Yrotation Xrotation
                        JOINT RightHandPinky4
                        {
                          OFFSET -1.546529 2e-06 4e-06
                          CHANNELS 3 Zrotation Yrotation Xrotation
                          JOINT RightHandPinkyEnd
                          {
                            OFFSET -1.952341 0.0 -4e-06
                            CHANNELS 3 Zrotation Yrotation Xrotation
                          }
                        }
                      }
                    }
                  }
                }
              }
            }
          }
        }
      }
    }
    JOINT LeftLeg
    {
      OFFSET -8.443107 2.567604 10.043214
      CHANNELS 3 Zrotation Yrotation Xrotation
      JOINT LeftShin
      {
        OFFSET 43.229198 1e-06 -1e-06
        CHANNELS 3 Zrotation Yrotation Xrotation
        JOINT LeftFoot
        {
          OFFSET 42.298611 1e-06 1e-06
          CHANNELS 3 Zrotation Yrotation Xrotation
          JOINT LeftToeBase
          {
            OFFSET 14.165858 1e-06 0.0
            CHANNELS 3 Zrotation Yrotation Xrotation
            JOINT LeftToeEnd
            {
              OFFSET 6.7141 -0.234461 0.0
              CHANNELS 3 Zrotation Yrotation Xrotation
            }
          }
        }
      }
    }
    JOINT RightLeg
    {
      OFFSET -8.303923 2.592729 -10.047278
      CHANNELS 3 Zrotation Yrotation Xrotation
      JOINT RightShin
      {
        OFFSET -43.369682 0.0 1e-06
        CHANNELS 3 Zrotation Yrotation Xrotation
        JOINT RightFoot
        {
          OFFSET -42.260784 4e-06 2e-06
          CHANNELS 3 Zrotation Yrotation Xrotation
          JOINT RightToeBase
          {
            OFFSET -14.222245 -2e-06 -1e-06
            CHANNELS 3 Zrotation Yrotation Xrotation
            JOINT RightToeEnd
            {
              OFFSET -6.660062 0.232574 -2e-06
              CHANNELS 3 Zrotation Yrotation Xrotation
            }
          }
        }
      }
    }
  }
}
MOTION
Frames: 4
Frame Time: 0.03333333333333333
0.0 0.0 0.0 0.0 -0.0 0.0 0.233389 47.789444 5.094512 91.202736 -49.497879 89.017601 19.482679 -0.230336 -0.674343 -4.15381 -0.563492 -0.642069 17.005247 0.781234 -1.861539 35.193062 -1.161733 2.875132 -2.881236 -0.243864 -0.857337 -21.670584 -0.367127 -1.269193 7e-06 -0.0 -0.0 -0.20271 0.03396 -0.01793 -0.228326 0.130069 -0.004393 -0.273891 -0.059596 -0.032466 -29.156855 -77.137169 32.620853 79.999367 -6.822632 -6.92915 17.228308 -1.021569 0.056633 -25.231676 79.429626 -22.109365 17.636625 -26.322725 52.411182 -19.466658 -14.395594 29.410381 1e-06 -8.774821 -3e-06 16.307707 -17.89333 6.20003 -0.609776 -1.795654 -3.889327 -4.807087 -11.046813 -2.937851 4e-06 -20.976015 -0.0 -5.01997 -25.033556 -4.031881 6e-06 -0.0 1e-06 -10.634531 -5.68697 -3.565587 10.573271 -17.922951 -3.113901 2e-06 -13.821206 1e-06 -0.501777 -31.181505 -4.027016 -11.711452 -59.517189 7.951373 -13.982711 -7.150197 -2.875041 13.772726 -8.401495 -3.218241 0.347733 -34.211544 0.771654 -0.963029 -17.73337 2.621019 0.0 0.0 -0.0 -17.346413 -20.095215 -4.201779 21.757555 -1.638374 3.866426 1e-06 -6.338821 1e-06 -1.697589 -22.591745 -6.194006 -0.0 -6e-06 -3e-06 166.847733 -81.605629 17.312357 80.501312 -8.26917 -11.84967 21.945385 -0.971058 -0.338609 37.254883 72.18486 37.717682 22.182102 -20.375887 49.933304 -16.701811 -16.743526 28.476526 -4e-06 -12.690596 1e-06 16.347008 -17.722963 2.653765 -0.105919 -1.513855 -4.27588 -5.039039 -5.612871 -2.953556 3e-06 -11.02052 -3e-06 -6.111295 -15.895334 -3.840469 1e-06 1e-06 -0.0 -10.283365 -5.680287 -4.341838 11.02829 -11.302402 -2.372633 -1.384268 -14.238579 -6.32012 -0.625439 -26.924191 -3.827602 -5.267605 -49.699718 -3.488658 -13.708519 -7.363475 -3.720938 18.141144 -14.052733 -3.242675 4e-06 -18.787268 -2e-06 -0.429711 -8.456041 2.555501 0.0 -1e-06 -0.0 -15.92353 -20.094479 -5.473582 30.419205 -7.190823 1.735924 3e-06 -8.162927 -1e-06 -1.861902 -22.861469 -6.167941 -1e-06 -2e-06 -1e-06 132.929581 -8.931688 -2.831563 116.277481 -0.78263 0.307169 -110.114227 10.401169 8.598399 -36.608826 1.758552 1.52343 -1.000001 -0.0 0.0 -47.594677 -9.685931 0.838337 118.462105 -0.636909 0.234112 -116.216011 8.157714 14.390338 -37.884605 1.151021 1.529249 -1.000003 -0.0 0.0 
0.0 0.0 0.0 0.0 -0.0 0.0 0.351277 47.790047 5.048713 91.043526 -49.614319 89.100113 19.454863 -0.185294 -0.668249 -4.16622 -0.576911 -0.60075 16.981344 0.827919 -1.739207 35.240925 -1.178475 2.815499 -2.852716 -0.280329 -0.90281 -21.578094 -0.358157 -1.273391 6e-06 0.0 0.0 -0.199152 0.006683 -0.023389 -0.208399 0.103606 -0.010454 -0.260672 -0.086109 -0.038929 -29.364882 -77.122536 33.033566 80.147095 -6.730112 -7.332396 17.167883 -0.967218 0.039469 -22.983068 79.801659 -19.965425 17.636625 -26.322729 52.411194 -19.46666 -14.395596 29.410385 -1e-06 -8.774821 -2e-06 16.195721 -17.922684 6.286383 -0.609776 -1.795653 -3.889328 -4.807088 -11.046809 -2.937851 5e-06 -20.976015 -1e-06 -5.019969 -25.033556 -4.031882 6e-06 -0.0 0.0 -10.634534 -5.686969 -3.565588 10.573272 -17.922947 -3.113901 3e-06 -13.821203 1e-06 -0.501776 -31.181498 -4.027016 -11.533901 -59.641506 7.85533 -13.982714 -7.150197 -2.875043 13.772731 -8.401491 -3.218241 0.347735 -34.211544 0.771654 -0.963028 -17.733366 2.62102 0.0 1e-06 0.0 -17.346416 -20.095213 -4.201782 21.757555 -1.638374 3.866428 1e-06 -6.338822 1e-06 -1.697588 -22.59174 -6.194006 -0.0 -5e-06 -3e-06 166.219376 -81.502708 18.036543 80.463699 -8.210944 -12.237387 22.043892 -0.9201 -0.308902 38.39492 71.975891 38.720936 22.182108 -20.375885 49.933308 -16.701805 -16.743525 28.476515 -3e-06 -12.690598 -1e-06 16.27977 -17.688623 2.687745 -0.10592 -1.513856 -4.27588 -5.03904 -5.612869 -2.953555 4e-06 -11.020518 -2e-06 -6.111296 -15.895324 -3.840472 1e-06 -1e-06 -0.0 -10.283367 -5.680287 -4.341837 11.028289 -11.302399 -2.372631 -1.384268 -14.238572 -6.320119 -0.625438 -26.924177 -3.827601 -5.224864 -49.702579 -3.426278 -13.70852 -7.363475 -3.720938 18.141146 -14.052731 -3.242672 4e-06 -18.787266 -1e-06 -0.429709 -8.456039 2.555502 0.0 -1e-06 -0.0 -15.923531 -20.094475 -5.473584 30.419205 -7.190823 1.735928 3e-06 -8.162921 -0.0 -1.861902 -22.861462 -6.167939 -1e-06 -1e-06 -0.0 132.695312 -8.917184 -2.873716 116.351471 -0.804229 0.333401 -109.866562 10.297121 8.755183 -36.413879 1.75812 1.478162 -1.000001 -0.0 0.0 -47.800869 -9.662535 0.900239 118.493851 -0.638028 0.225416 -116.144829 8.22995 14.420809 -37.681293 1.137663 1.526889 -1.000001 1e-06 -0.0 
0.0 0.0 0.0 0.0 -0.0 0.0 0.442632 47.764389 5.013227 91.027878 -49.698101 89.081627 19.420435 -0.161958 -0.64132 -4.180352 -0.588954 -0.538307 16.958698 0.856625 -1.656024 35.311962 -1.164404 2.717228 -2.834437 -0.350095 -0.931495 -21.634554 -0.403574 -1.292644 6e-06 -0.0 -0.0 -0.19374 -0.020714 -0.026085 -0.230236 0.074774 -0.022096 -0.279603 -0.111283 -0.035214 -29.153427 -77.072098 32.975441 80.193283 -6.698771 -7.321245 17.274567 -0.834498 0.050838 -22.806479 79.83564 -19.91748 17.636627 -26.322733 52.411205 -19.46666 -14.395598 29.410393 -2e-06 -8.774821 -2e-06 16.128168 -17.884054 6.320026 -0.609776 -1.795654 -3.889328 -4.807088 -11.046813 -2.937852 5e-06 -20.976015 -1e-06 -5.019969 -25.033556 -4.031884 6e-06 1e-06 1e-06 -10.634535 -5.68697 -3.565589 10.573275 -17.922951 -3.113902 3e-06 -13.821206 1e-06 -0.501776 -31.181505 -4.027016 -11.371734 -59.69212 7.7701 -13.982715 -7.150198 -2.875043 13.772731 -8.401494 -3.218242 0.347736 -34.211544 0.771654 -0.963029 -17.73337 2.621021 -0.0 1e-06 0.0 -17.346416 -20.095217 -4.201784 21.757557 -1.638376 3.866428 2e-06 -6.338822 1e-06 -1.697588 -22.591743 -6.194006 0.0 -5e-06 -3e-06 166.128067 -81.376518 18.182579 80.320213 -8.175204 -12.517205 22.11842 -0.922847 -0.294962 39.327538 71.95163 39.825207 22.182114 -20.375895 49.933319 -16.701815 -16.743528 28.476532 -3e-06 -12.690601 -0.0 16.218378 -17.613731 2.732353 -0.10592 -1.513856 -4.275881 -5.039042 -5.612873 -2.953557 4e-06 -11.020525 -2e-06 -6.111299 -15.895336 -3.840472 -0.0 -1e-06 -0.0 -10.283371 -5.680289 -4.341839 11.028296 -11.302406 -2.372633 -1.38427 -14.238582 -6.320121 -0.62544 -26.924194 -3.827602 -5.176396 -49.659698 -3.362056 -13.708526 -7.363477 -3.720941 18.141151 -14.052739 -3.242675 4e-06 -18.787271 -2e-06 -0.429711 -8.456047 2.555503 -2e-06 -1e-06 0.0 -15.923538 -20.094492 -5.473585 30.419218 -7.190827 1.735926 2e-06 -8.162927 -1e-06 -1.861903 -22.861469 -6.167943 -1e-06 -2e-06 -1e-06 132.559814 -8.860949 -2.961256 116.415756 -0.808878 0.35735 -109.73822 10.201042 8.859248 -36.302967 1.759009 1.463953 -1.0 -0.0 -0.0 -47.952034 -9.68475 1.056479 118.552116 -0.612826 0.249608 -116.118248 8.261703 14.350059 -37.607273 1.124942 1.522579 -1.000004 -0.0 0.0 
0.0 0.0 0.0 0.0 -0.0 0.0 0.500089 47.734154 4.940373 91.066452 -49.787834 89.05899 19.396872 -0.140011 -0.619867 -4.201359 -0.614206 -0.49045 16.911005 0.904333 -1.605318 35.354954 -1.190938 2.606745 -2.816331 -0.415805 -0.966508 -21.777153 -0.437978 -1.299774 6e-06 -0.0 -0.0 -0.190904 -0.046879 -0.027192 -0.26936 0.046634 -0.033976 -0.308939 -0.136076 -0.027796 -28.997688 -77.010963 32.931828 80.182297 -6.692168 -7.351713 17.493044 -0.742542 0.063759 -22.690475 79.869614 -19.678976 17.636625 -26.322729 52.411179 -19.466658 -14.395596 29.410385 0.0 -8.774821 -2e-06 16.086666 -17.809198 6.339444 -0.609776 -1.795655 -3.889327 -4.807088 -11.046813 -2.937849 3e-06 -20.976013 0.0 -5.019969 -25.033556 -4.03188 7e-06 -0.0 0.0 -10.634531 -5.68697 -3.565587 10.573271 -17.922951 -3.1139 2e-06 -13.821206 1e-06 -0.501778 -31.181505 -4.027016 -11.293667 -59.715 7.711932 -13.982711 -7.150197 -2.875041 13.772726 -8.401492 -3.21824 0.347732 -34.211544 0.771654 -0.963029 -17.733368 2.621019 0.0 -0.0 0.0 -17.346413 -20.095217 -4.20178 21.757555 -1.638374 3.866427 1e-06 -6.338822 1e-06 -1.697589 -22.59174 -6.194005 -0.0 -5e-06 -2e-06 166.066864 -81.18087 18.2281 80.206154 -8.214212 -12.701089 22.208309 -0.903148 -0.287082 39.798519 72.051117 40.502621 22.182112 -20.375887 49.933304 -16.701811 -16.743525 28.476526 -1e-06 -12.690598 -0.0 16.197285 -17.557909 2.761943 -0.105919 -1.513856 -4.27588 -5.03904 -5.612871 -2.953556 4e-06 -11.020526 -2e-06 -6.111296 -15.895334 -3.84047 0.0 0.0 -0.0 -10.283367 -5.680289 -4.341837 11.028291 -11.302407 -2.372633 -1.384269 -14.238579 -6.32012 -0.625441 -26.924194 -3.8276 -5.141984 -49.663532 -3.30221 -13.708522 -7.363477 -3.720939 18.141146 -14.052739 -3.242674 4e-06 -18.787273 -2e-06 -0.42971 -8.456042 2.555503 0.0 -1e-06 -0.0 -15.923532 -20.094486 -5.473582 30.419205 -7.190825 1.735925 2e-06 -8.162926 -1e-06 -1.8619 -22.861469 -6.167942 -2e-06 -3e-06 -1e-06 132.369507 -8.787397 -3.004995 116.532402 -0.797825 0.374115 -109.658974 10.147876 8.954251 -36.394642 1.761344 1.47337 -1.0 -0.0 -0.0 -48.150013 -9.727404 1.236049 118.673515 -0.557171 0.277912 -116.109787 8.265144 14.251211 -37.606125 1.116763 1.517699 -1.000005 1e-06 -0.0 
